<svg xmlns="http://www.w3.org/2000/svg" viewBox="0 0 2801.2 512" height="50"><defs><style>.d{fill:#242729}</style></defs><g id="b"><g id="c"><path class="d" d="M488.96 0H23.04C10.37 0 0 10.37 0 23.04v465.92C0 501.63 10.37 512 23.04 512h465.92c12.67 0 23.04-10.37 23.04-23.04V23.04C512 10.37 501.63 0 488.96 0Zm-77.07 151.71H161.74v209.07h94.27v61.62h-155.9V89.6h311.78v62.11ZM329.95 256l-74.14 42.8v-85.61l74.14 42.8ZM818.22 252.26h50.32v96.56c-12.92 9.75-27.88 17.23-44.88 22.44-17 5.21-34.12 7.82-51.34 7.82-24.71 0-46.92-5.27-66.64-15.81-19.72-10.54-35.19-25.16-46.41-43.86-11.22-18.7-16.83-39.83-16.83-63.41s5.61-44.71 16.83-63.41c11.22-18.7 26.8-33.32 46.75-43.86 19.94-10.54 42.38-15.81 67.32-15.81 20.85 0 39.78 3.52 56.78 10.54 17 7.03 31.28 17.23 42.84 30.6L837.6 206.7c-17-17.9-37.52-26.86-61.54-26.86-15.19 0-28.68 3.18-40.46 9.52-11.79 6.35-20.97 15.3-27.54 26.86-6.58 11.56-9.86 24.82-9.86 39.78s3.28 27.88 9.86 39.44c6.57 11.56 15.69 20.57 27.37 27.03 11.67 6.46 24.99 9.69 39.95 9.69 15.86 0 30.14-3.4 42.84-10.2v-69.7ZM1086.48 324h-110.5l-21.08 51h-56.44l106.08-238h54.4l106.42 238h-57.8l-21.08-51Zm-17.34-41.82-37.74-91.12-37.74 91.12h75.48ZM1416.96 375l-.34-142.8-70.04 117.64h-24.82l-69.7-114.58V375h-51.68V137h45.56l89.08 147.9 87.72-147.9h45.22l.68 238h-51.68ZM1791.09 181.2v62.9h110.16v44.2h-110.16V375h-55.08V137h179.86v44.2h-124.78ZM1960.27 137h55.08v193.12h119.34V375h-174.42V137ZM2213.39 363.1c-19.84-10.65-35.36-25.33-46.58-44.03-11.22-18.7-16.83-39.72-16.83-63.07s5.61-44.37 16.83-63.07c11.22-18.7 26.74-33.37 46.58-44.03 19.83-10.65 42.1-15.98 66.81-15.98s46.92 5.33 66.64 15.98c19.72 10.66 35.24 25.33 46.58 44.03 11.33 18.7 17 39.73 17 63.07s-5.67 44.37-17 63.07c-11.34 18.7-26.86 33.38-46.58 44.03-19.72 10.66-41.94 15.98-66.64 15.98s-46.98-5.32-66.81-15.98Zm104.89-40.63c11.33-6.46 20.23-15.47 26.69-27.03s9.69-24.7 9.69-39.44-3.23-27.88-9.69-39.44-15.36-20.57-26.69-27.03c-11.34-6.46-24.03-9.69-38.08-9.69s-26.75 3.23-38.08 9.69c-11.34 6.46-20.23 15.47-26.69 27.03s-9.69 24.71-9.69 39.44 3.23 27.88 9.69 39.44 15.35 20.57 26.69 27.03c11.33 6.46 24.02 9.69 38.08 9.69s26.74-3.23 38.08-9.69ZM2801.2 137l-77.86 238h-59.16l-52.36-161.16L2557.76 375h-58.82l-78.2-238h57.12l53.72 167.28 56.1-167.28h51l54.4 168.64L2748.5 137h52.7ZM1519.92 330h169.44v45h-169.44zM1519.92 137h169.44v45h-169.44zM1519.92 234.37h130.44v45h-130.44z"/></g></g></svg>