<svg width="96" height="96" fill="none" xmlns="http://www.w3.org/2000/svg">
    <rect width="96" height="96" rx="6" fill="#FFBF00" />
    <g clip-path="url(#a)">
        <path
            d="M28.857 62.227c-1.823 0-3.48-1.493-3.48-3.314a3.392 3.392 0 0 1 1.045-2.395 3.365 3.365 0 0 1 2.435-.931c2 0 3.504 1.497 3.504 3.326 0 1.83-1.666 3.314-3.504 3.314Zm42.708-18.105c-.367-2.658-2.001-4.824-4.161-6.474l-.841-.669-.679.816c-1.313 1.494-1.841 4.158-1.679 6.139a8.659 8.659 0 0 0 1.482 4.158c-.688.355-1.52.669-2.17 1.014-1.442.46-2.948.686-4.46.669H16.263l-.17.998a18.941 18.941 0 0 0 1.501 9.487l.656 1.161v.157c4.002 6.653 11.132 9.644 18.877 9.644 14.924 0 27.155-6.474 32.953-20.437 3.804.167 7.647-.828 9.44-4.478l.481-.835-.793-.502c-2.166-1.328-5.126-1.507-7.602-.838h-.054l.013-.01Zm-21.346-2.658h-6.5v6.484h6.48l.02-6.484Zm0-8.147h-6.5V39.8h6.48l.02-6.484Zm0-8.317h-6.5v6.484h6.48L50.22 25Zm7.917 16.464h-6.452v6.484h6.458v-6.484h-.006Zm-23.994 0h-6.451v6.484h6.47v-6.484h-.019Zm8.073 0h-6.407v6.484h6.44v-6.484h-.032Zm-16.073 0H19.73v6.484h6.483v-6.484h-.07Zm16.06-8.147H35.81V39.8h6.438v-6.484h-.044Zm-8.117 0h-6.372V39.8h6.426v-6.484h-.054Z"
            fill="#242729" />
    </g>
    <defs>
        <clipPath id="a">
            <path fill="#fff" transform="translate(16 25)" d="M0 0h64v46.222H0z" />
        </clipPath>
    </defs>
</svg>
