<svg width="96" height="96" fill="none" xmlns="http://www.w3.org/2000/svg">
    <rect width="96" height="96" rx="6" fill="#FFBF00" />
    <path
        d="M16.83 42.229c-.125 0-.156-.063-.094-.156l.654-.841c.063-.094.219-.156.343-.156h11.124c.125 0 .156.093.093.187l-.53.81c-.062.093-.218.187-.311.187l-11.28-.031ZM12.125 45.095c-.125 0-.156-.062-.094-.155l.654-.842c.063-.093.219-.155.343-.155h14.209c.124 0 .187.093.155.187l-.249.747c-.031.125-.156.187-.28.187l-14.738.031ZM19.665 47.962c-.125 0-.156-.094-.093-.187l.436-.779c.062-.093.187-.187.311-.187h6.232c.125 0 .187.094.187.218l-.062.748c0 .125-.125.218-.218.218l-6.793-.031ZM52.008 41.668c-1.963.498-3.303.872-5.235 1.37-.467.126-.498.157-.904-.31-.467-.53-.81-.873-1.464-1.185-1.963-.966-3.864-.685-5.64.468-2.118 1.37-3.209 3.396-3.178 5.92.031 2.493 1.745 4.549 4.207 4.892 2.118.28 3.894-.468 5.297-2.057.28-.342.53-.716.84-1.153h-6.013c-.654 0-.81-.405-.592-.934.405-.966 1.153-2.587 1.59-3.397.093-.187.31-.498.778-.498h11.342c-.062.841-.062 1.682-.187 2.524-.343 2.243-1.184 4.3-2.555 6.107-2.243 2.96-5.172 4.798-8.88 5.297-3.054.405-5.89-.187-8.382-2.057-2.306-1.745-3.614-4.05-3.957-6.917-.405-3.396.592-6.45 2.649-9.13 2.212-2.897 5.14-4.736 8.724-5.39 2.929-.53 5.733-.187 8.257 1.527 1.651 1.09 2.835 2.586 3.614 4.393.187.28.063.437-.311.53Z"
        fill="#242729" />
    <path
        d="M62.321 58.899c-2.835-.063-5.421-.873-7.602-2.742-1.839-1.59-2.992-3.615-3.366-6.014-.56-3.52.405-6.637 2.524-9.41 2.275-2.991 5.017-4.549 8.725-5.203 3.178-.561 6.17-.25 8.88 1.589 2.462 1.682 3.988 3.957 4.393 6.948.53 4.207-.685 7.634-3.583 10.563-2.056 2.088-4.58 3.396-7.478 3.988-.841.156-1.682.187-2.493.28Zm7.416-12.588c-.031-.405-.031-.717-.093-1.029-.561-3.084-3.397-4.83-6.357-4.144-2.898.655-4.767 2.493-5.453 5.422-.56 2.43.624 4.892 2.867 5.889 1.714.748 3.428.654 5.079-.187 2.462-1.278 3.801-3.272 3.957-5.951Z"
        fill="#242729" />
</svg>
