<svg width="96" height="96" fill="none" xmlns="http://www.w3.org/2000/svg">
    <rect width="96" height="96" rx="6" fill="#FFBF00" />
    <path
        d="M45.12 16.813c1.74-.905 4.006-.909 5.745 0C59.612 21.3 68.36 25.78 77.107 30.27c1.645.842 2.745 2.504 2.728 4.225v27c.012 1.792-1.197 3.494-2.932 4.316-8.718 4.463-17.432 8.931-26.148 13.394-1.776.922-4.088.852-5.81-.146-2.613-1.376-5.23-2.745-7.845-4.12-.534-.288-1.136-.519-1.513-.989.333-.408.93-.459 1.414-.637 1.09-.315 2.093-.82 3.095-1.311.253-.158.563-.097.806.044 2.235 1.163 4.45 2.36 6.693 3.513.478.25.962-.082 1.371-.29 8.556-4.39 17.121-8.763 25.675-13.155a.76.76 0 0 0 .466-.76c.006-8.906.002-17.814.003-26.72.036-.358-.192-.687-.548-.834-8.688-4.442-17.371-8.892-26.057-13.335a.971.971 0 0 0-.512-.145.971.971 0 0 0-.512.143c-8.686 4.445-17.368 8.899-26.054 13.341-.355.147-.593.47-.551.83v26.722a.7.7 0 0 0 .107.442.807.807 0 0 0 .365.308c2.318 1.193 4.64 2.379 6.959 3.568 1.306.639 2.91 1.018 4.35.529 1.271-.414 2.162-1.591 2.137-2.816.012-8.855-.006-17.71.01-26.564-.032-.393.378-.718.8-.681a161.25 161.25 0 0 1 3.342.003.722.722 0 0 1 .727.81c-.004 8.91.012 17.821-.007 26.732.003 2.375-1.072 4.959-3.49 6.12-2.981 1.403-6.665 1.105-9.61-.239-2.548-1.155-4.98-2.518-7.484-3.756-1.74-.817-2.943-2.526-2.931-4.317v-27c-.018-1.757 1.126-3.45 2.822-4.278 8.716-4.467 17.432-8.937 26.147-13.405Z"
        fill="#242729" />
    <path
        d="M52.724 35.516c3.802-.223 7.872-.132 11.292 1.568 2.65 1.303 4.118 4.038 4.164 6.71-.074.36-.489.56-.868.535-1.102-.002-2.206.014-3.309-.007-.468.016-.74-.375-.798-.75-.317-1.28-1.085-2.546-2.41-3.162-2.035-.925-4.393-.878-6.612-.86-1.619.079-3.36.206-4.732 1.07-1.054.656-1.373 1.978-.998 3.043.355.765 1.327 1.011 2.122 1.239 4.582 1.088 9.437.98 13.93 2.411 1.861.584 3.681 1.719 4.318 3.488.833 2.37.468 5.204-1.39 7.107-1.506 1.566-3.7 2.419-5.888 2.882-2.911.59-5.932.604-8.889.343-2.78-.288-5.672-.951-7.819-2.671-1.835-1.447-2.731-3.701-2.642-5.877.021-.368.424-.624.812-.594 1.11-.008 2.221-.01 3.332.002a.748.748 0 0 1 .795.699c.205 1.218.71 2.496 1.88 3.218 2.257 1.323 5.09 1.232 7.674 1.27 2.142-.087 4.546-.113 6.293-1.398.922-.733 1.196-1.96.947-3.015-.27-.89-1.297-1.306-2.178-1.577-4.523-1.3-9.432-.828-13.911-2.297-1.818-.583-3.577-1.687-4.275-3.383-.975-2.4-.528-5.37 1.524-7.209 2.001-1.83 4.89-2.534 7.636-2.786Z"
        fill="#242729" />
</svg>
